<?xml version="1.0" encoding="utf-8"?>
<!-- Generator: Adobe Illustrator 15.0.0, SVG Export Plug-In . SVG Version: 6.00 Build 0)  -->
<!DOCTYPE svg PUBLIC "-//W3C//DTD SVG 1.1//EN" "http://www.w3.org/Graphics/SVG/1.1/DTD/svg11.dtd">
<svg version="1.1" id="Ebene_1" xmlns="http://www.w3.org/2000/svg" xmlns:xlink="http://www.w3.org/1999/xlink" x="0px" y="0px"
	 width="2904px" height="3012px" viewBox="0 0 2904 3012" enable-background="new 0 0 2904 3012" xml:space="preserve">
<g>
	<defs>
		<rect id="SVGID_1_" x="0.065" y="0.02" width="2903.871" height="3011.96"/>
	</defs>
	<clipPath id="SVGID_2_">
		<use xlink:href="#SVGID_1_"  overflow="visible"/>
	</clipPath>
	<g clip-path="url(#SVGID_2_)">
		<defs>
			<rect id="SVGID_3_" x="0.065" y="0.018" width="2903.869" height="3011.962"/>
		</defs>
		<clipPath id="SVGID_4_">
			<use xlink:href="#SVGID_3_"  overflow="visible"/>
		</clipPath>
		<g opacity="0.4" clip-path="url(#SVGID_4_)">
			<g>
				<defs>
					<rect id="SVGID_5_" x="-434.789" y="-258.04" width="3773.684" height="3527.927"/>
				</defs>
				<clipPath id="SVGID_6_">
					<use xlink:href="#SVGID_5_"  overflow="visible"/>
				</clipPath>
				<path clip-path="url(#SVGID_6_)" fill="#FFFFFF" d="M1407.918,1723.764l-29.482-134.68l-137.451-10.803l101.911-92.853
					l-60.269-134.845l131.357,41.829l78.999-103.23l29.453,134.689l137.457,10.792l-101.922,92.864l59.393,124.426l-131.385-41.82
					L1407.918,1723.764z M2285.896,2451.396l143.074,124.709l179.525-61.553l36.457-186.262l-143.074-124.697l-93.15,31.938
					l-78.355-68.295l275.867-53.182l-29.934-155.291l-397.268,76.574l-76.643-66.803l203.361-39.195l-29.941-155.297
					l-324.752,62.592l-134.018-116.809l16.365-83.637l129.682,111.271l362.803-70.889l-309.496-201.45l-162.039,54.075
					l16.285-83.198l168.793-57.873l277.172,180.419l86.281-132.548l-173.564-112.977l96.168-32.973l339.084,220.718l86.277-132.566
					l-235.455-153.264l98.312-33.707l74.232,64.694l179.531-61.554l36.455-186.253l-143.07-124.698l-179.529,61.554l-18.916,96.641
					l-98.32,33.711l91.883-265.505l-149.451-51.725l-132.32,382.336l-96.17,32.973l67.725-195.714l-149.461-51.712l-108.156,312.533
					l-168.807,57.878l-63.486-55.336l160.928-56.574l120.014-349.635l-329.213,167.302l-34.127,167.09l-63.912-55.702
					l34.221-174.837l294.832-149.84l-71.643-140.982l-184.625,93.814l19.535-99.77l360.682-183.291l-71.658-141.004L1740.42,444.911
					l19.967-102.004l93.145-31.936l36.459-186.254L1746.922,0.018l-179.531,61.555l-36.459,186.253l74.234,64.703l-19.963,101.985
					l-183.98-212.306l-119.529,103.57l264.939,305.765l-19.525,99.756l-135.625-156.514l-119.515,103.584l216.576,249.949
					l-34.148,174.476l-80.005,27.431l31.475-167.644l-242.795-278.756l-19.708,368.759l127.635,113.091l-80.197,27.497
					l-134.286-117.053l17.646-330.255l-157.94-8.445l-11.045,206.794l-76.639-66.795l21.613-404.004l-157.941-8.446L677.195,725.52
					l-78.362-68.291l18.927-96.636L474.686,435.896l-179.535,61.556l-36.46,186.253l143.074,124.698l93.169-31.943l78.346,68.296
					L297.409,897.93l29.933,155.29l397.254-76.578l76.661,66.806l-203.356,39.193l29.939,155.308l324.758-62.595l134.01,116.793
					l-16.254,83.022l-129.446-111.092l-362.811,70.9l309.492,201.451l161.763-53.991l-16.287,83.202l-168.497,57.771
					l-277.181-180.417l-86.285,132.56l173.561,112.969l-96.169,32.973l-339.071-220.713l-86.288,132.551L388.606,1786.6
					l-98.321,33.711l-74.241-64.691L36.526,1817.17L0.065,2003.422l143.075,124.697l179.518-61.551l18.924-96.643l98.321-33.711
					l-91.891,265.5l149.468,51.719l132.311-382.326l96.17-32.973l-67.731,195.699l149.455,51.732l108.181-312.543l168.147-57.65
					l63.753,55.57l-160.898,56.562L866.85,2177.154l329.213-167.312l34.113-167.066l63.925,55.688l-34.228,174.83l-294.849,149.828
					l71.669,140.99l184.61-93.816l-19.528,99.775l-360.664,183.293l71.652,140.998l250.462-127.287l-19.975,102.008l-93.135,31.934
					l-36.46,186.252l143.06,124.713l179.534-61.557l36.458-186.262l-74.244-64.699l19.971-102.018l183.984,212.334l119.531-103.58
					l-264.945-305.754l19.53-99.768l135.612,156.518l119.545-103.594L1415.1,2103.66l34.134-174.453l80.012-27.434l-31.455,167.646
					l242.791,278.758l19.713-368.762l-127.635-113.1l80.207-27.5l134.277,117.045l-17.654,330.258l157.934,8.447l11.055-206.805
					l76.639,66.795l-21.598,404.018l157.936,8.447l15-280.559l78.354,68.295L2285.896,2451.396z"/>
			</g>
		</g>
	</g>
</g>
</svg>
