<?xml version="1.0" encoding="utf-8"?>
<!-- Generator: Adobe Illustrator 15.0.0, SVG Export Plug-In . SVG Version: 6.00 Build 0)  -->
<!DOCTYPE svg PUBLIC "-//W3C//DTD SVG 1.1//EN" "http://www.w3.org/Graphics/SVG/1.1/DTD/svg11.dtd">
<svg version="1.1" id="Ebene_1" xmlns="http://www.w3.org/2000/svg" xmlns:xlink="http://www.w3.org/1999/xlink" x="0px" y="0px"
	 width="2904px" height="3012px" viewBox="0 0 2904 3012" enable-background="new 0 0 2904 3012" xml:space="preserve">
<g>
	<polygon opacity="0.4" fill="#FFFFFF" points="618.104,560.601 475.029,435.893 295.503,497.446 259.046,683.708 402.121,808.405 
		495.271,776.467 573.626,844.761 297.758,897.944 327.692,1053.234 724.96,976.66 801.604,1043.463 598.241,1082.658 
		628.182,1237.956 952.936,1175.363 1086.953,1292.172 1070.587,1375.809 940.906,1264.538 578.104,1335.425 887.597,1536.877 
		1049.638,1482.8 1033.352,1566 864.559,1623.873 587.387,1443.455 501.107,1576.002 674.671,1688.979 578.502,1721.951 
		239.419,1501.232 153.141,1633.799 388.596,1787.062 290.284,1820.77 216.051,1756.076 36.521,1817.631 0.065,2003.883 
		143.135,2128.582 322.666,2067.027 341.582,1970.387 439.901,1936.676 348.02,2202.18 497.469,2253.904 629.791,1871.568 
		725.96,1838.596 658.235,2034.311 807.696,2086.021 915.854,1773.488 1084.659,1715.611 1148.145,1770.947 987.217,1827.521 
		867.205,2177.156 1196.417,2009.854 1230.544,1842.764 1294.456,1898.467 1260.235,2073.303 965.403,2223.143 1037.046,2364.125 
		1221.671,2270.311 1202.136,2370.082 841.453,2553.373 913.112,2694.377 1163.579,2567.088 1143.612,2669.092 1050.468,2701.027 
		1014.008,2887.281 1157.078,3011.98 1336.608,2950.426 1373.069,2764.172 1298.833,2699.469 1318.796,2597.484 1502.775,2809.791 
		1622.305,2706.221 1357.367,2400.455 1376.891,2300.699 1512.518,2457.213 1632.033,2353.629 1415.457,2103.682 1449.605,1929.205 
		1529.609,1901.773 1498.135,2069.418 1740.93,2348.174 1760.639,1979.414 1633.004,1866.322 1713.201,1838.826 1847.486,1955.879 
		1829.84,2286.135 1987.781,2294.58 1998.826,2087.785 2075.465,2154.58 2053.852,2558.584 2211.793,2567.029 2226.805,2286.479 
		2305.166,2354.77 2286.238,2451.404 2429.312,2576.102 2608.848,2514.547 2645.309,2328.293 2502.234,2203.596 2409.064,2235.539 
		2330.719,2167.242 2606.59,2114.068 2576.656,1958.777 2179.402,2035.355 2102.74,1968.551 2306.098,1929.357 2276.158,1774.049 
		1951.4,1836.645 1817.391,1719.852 1833.645,1636.83 1963.092,1747.922 2325.902,1677.021 2016.41,1475.57 1854.646,1529.561 
		1870.934,1446.361 2039.432,1388.589 2316.611,1569.006 2402.896,1436.446 2229.336,1323.477 2325.506,1290.504 2664.576,1511.217 
		2750.863,1378.666 2515.393,1225.398 2613.715,1191.688 2687.955,1256.38 2867.473,1194.83 2903.934,1008.576 2760.859,883.879 
		2581.342,945.429 2562.418,1042.073 2464.096,1075.784 2555.986,810.285 2406.52,758.566 2274.209,1140.89 2178.039,1173.863 
		2245.768,978.165 2096.314,926.432 1988.133,1238.975 1819.986,1296.626 1756.232,1241.055 1917.131,1184.492 2037.148,834.844 
		1707.936,1002.156 1673.822,1169.223 1609.898,1113.535 1644.127,938.705 1938.975,788.877 1867.307,647.887 1682.695,741.704 
		1702.225,641.927 2062.889,458.634 1991.236,317.637 1740.773,444.923 1760.75,342.917 1853.885,310.983 1890.344,124.73 
		1747.285,0.018 1567.75,61.574 1531.293,247.836 1605.537,312.536 1585.564,414.552 1401.582,202.219 1282.05,305.799 
		1546.996,611.553 1527.465,711.321 1391.851,554.802 1272.307,658.396 1488.898,908.338 1454.766,1082.792 1374.752,1110.225 
		1406.208,942.579 1163.417,663.822 1143.705,1032.582 1271.338,1145.682 1191.132,1173.182 1056.854,1056.136 1074.508,725.879 
		916.576,717.431 905.521,924.237 828.881,857.442 850.48,453.424 692.544,444.977 677.544,725.535 599.19,657.241 	"/>
</g>
</svg>
