<?xml version="1.0" encoding="utf-8"?>
<!-- Generator: Adobe Illustrator 15.0.0, SVG Export Plug-In . SVG Version: 6.00 Build 0)  -->
<!DOCTYPE svg PUBLIC "-//W3C//DTD SVG 1.1//EN" "http://www.w3.org/Graphics/SVG/1.1/DTD/svg11.dtd">
<svg version="1.1" id="Ebene_1" xmlns="http://www.w3.org/2000/svg" xmlns:xlink="http://www.w3.org/1999/xlink" x="0px" y="0px"
	 width="2237px" height="2447px" viewBox="0 0 2237 2447" enable-background="new 0 0 2237 2447" xml:space="preserve">
<g>
	<defs>
		<rect id="SVGID_1_" x="0.1" y="0.2" width="2236.8" height="2446.6"/>
	</defs>
	<clipPath id="SVGID_2_">
		<use xlink:href="#SVGID_1_"  overflow="visible"/>
	</clipPath>
	<g clip-path="url(#SVGID_2_)">
		<defs>
			<rect id="SVGID_3_" x="0.1" y="0.204" width="2236.796" height="2446.596"/>
		</defs>
		<clipPath id="SVGID_4_">
			<use xlink:href="#SVGID_3_"  overflow="visible"/>
		</clipPath>
		<g opacity="0.2" clip-path="url(#SVGID_4_)">
			<g>
				<defs>
					<rect id="SVGID_5_" x="-445.943" y="-263.46" width="3128.994" height="2973.764"/>
				</defs>
				<clipPath id="SVGID_6_">
					<use xlink:href="#SVGID_5_"  overflow="visible"/>
				</clipPath>
				<path clip-path="url(#SVGID_6_)" fill="#FFFFFF" d="M1264.137,1121.02l-56.99,94.56l73.994,81.946l-110.385-2.097
					l-33.975,105.048l-53.372-96.636l-107.974,23.106l57.014-94.548l-74.005-81.943l110.398,2.095l33.949-105.061l53.393,96.647
					L1264.137,1121.02z M1154.047,214.518l-14.564-151.289L1001.186,0.204L877.45,88.466l14.569,151.282l71.759,32.703l7.977,82.853
					L782.033,234.376l-68.074,106.795l273.205,174.152l7.802,81.042l-139.851-89.149L787.04,614.019l223.334,142.365l13.644,141.71
					l-55.557,39.635L954.29,801.627L704.259,643.14l69.11,287.535l124.011,57.748l-55.271,39.424L712.081,968.59l-61.889-257.509
					l-123.145,29.595l38.754,161.251l-74.083-33.762l-75.711-315.028l-123.155,29.608l52.574,218.751l-75.734-34.515l-7.562-78.489
					l-138.299-63.027L0.1,713.722l14.567,151.282l138.299,63.026l64.201-45.794l75.74,34.517l-199.594,103.84l58.448,112.353
					l287.426-149.528l74.083,33.762l-147.125,76.547l58.461,112.352l234.947-122.234l130.038,59.262l6.463,67.132l-124.739-55.684
					l-262.266,137.285l283.567,83.92l111.828-78.394l6.508,67.578l-116.146,82.848l-253.959-75.149l-35.939,121.433l159.021,47.069
					l-66.283,47.274l-310.672-91.945l-35.942,121.455l215.741,63.844l-67.763,48.335l-71.753-32.7l-123.733,88.256l14.566,151.282
					l138.3,63.027l123.733-88.255l-7.558-78.497l67.751-48.325l-9.866,224.755l126.532,5.562l14.226-323.678l66.27-47.271
					l-7.277,165.688l126.531,5.546l11.629-264.592l115.907-82.678l61.631,28.087l-110.59,80.176l-12.238,295.779l214.456-203.623
					l-11.979-136.034l61.779,28.154l13.666,142l-192.06,182.364l87.21,91.854l120.259-114.19l7.805,81.034l-234.965,223.073
					l87.209,91.855l163.168-154.907l7.982,82.854l-64.204,45.785l14.57,151.284l138.303,63.028l123.732-88.255l-14.568-151.284
					l-71.773-32.708l-7.971-82.849l189.719,120.934l68.076-106.796l-273.199-174.141l-7.811-81.055l139.848,89.148l68.08-106.81
					l-223.338-142.365l-13.648-141.697l55.154-39.338l14.133,135.869l250.041,158.482l-69.107-287.533l-123.803-57.646
					l55.271-39.424l129.801,59.153L1586.803,1736l123.156-29.6l-38.758-161.244l74.084,33.763l75.707,315.018l123.152-29.593
					l-52.582-218.763l75.742,34.518l7.566,78.493l138.291,63.021l123.734-88.254l-14.57-151.284l-138.291-63.022l-64.207,45.791
					l-75.74-34.518l199.596-103.831l-58.461-112.358l-287.414,149.526l-74.084-33.762l147.121-76.535l-58.447-112.358
					l-234.965,122.225l-129.531-59.03l-6.488-67.416l124.717,55.675l262.275-137.289l-283.574-83.915l-111.807,78.388l-6.523-67.577
					l116.146-82.841l253.963,75.167l35.93-121.452l-159.016-47.06l66.283-47.28l310.662,91.932l35.941-121.446l-215.736-63.843
					l67.77-48.332l71.746,32.696l123.734-88.256l-14.555-151.284l-138.303-63.027l-123.738,88.261l7.566,78.5l-67.773,48.339
					l9.879-224.771l-126.539-5.558l-14.217,323.674l-66.279,47.273l7.287-165.682l-126.555-5.557l-11.615,264.596l-115.885,82.674
					l-61.637-28.091l110.58-80.188l12.24-295.777l-214.459,203.621l11.973,136.039l-61.785-28.158l-13.666-141.99l192.066-182.361
					l-87.203-91.851l-120.271,114.192l-7.805-81.036l234.965-223.089l-87.207-91.853l-163.165,154.916l-7.977-82.852
					L1154.047,214.518z"/>
			</g>
		</g>
	</g>
</g>
</svg>
