<?xml version="1.0" encoding="utf-8"?>
<!-- Generator: Adobe Illustrator 15.0.0, SVG Export Plug-In . SVG Version: 6.00 Build 0)  -->
<!DOCTYPE svg PUBLIC "-//W3C//DTD SVG 1.1//EN" "http://www.w3.org/Graphics/SVG/1.1/DTD/svg11.dtd">
<svg version="1.1" id="Ebene_1" xmlns="http://www.w3.org/2000/svg" xmlns:xlink="http://www.w3.org/1999/xlink" x="0px" y="0px"
	 width="160px" height="161px" viewBox="0 0 160 161" enable-background="new 0 0 160 161" xml:space="preserve">
<g>
	<rect fill="none" width="160" height="161"/>
	<g>
		<g>
			<g>
				<g>
					<defs>
						<rect id="SVGID_1_" y="23.188" width="160" height="112.625"/>
					</defs>
					<clipPath id="SVGID_2_">
						<use xlink:href="#SVGID_1_"  overflow="visible"/>
					</clipPath>
					<path clip-path="url(#SVGID_2_)" fill="#ADADB8" d="M39.915,73.865c-0.133,0.034,4.323,0.017-25.739,0.017
						C6.273,73.474-0.005,66.93-0.001,58.628L0.011,37.88C0.157,29.746,6.8,23.188,15.146,23.188l24.726,0.01
						c3.499,0,6.329,2.827,6.329,6.33c0,3.492-2.829,6.324-6.329,6.324l-20.815-0.023h-0.624c-3.061,0.334-5.452,2.738-5.708,5.793
						l-0.096,12.986v0.432v0.416c0.356,3.019,2.736,5.372,5.744,5.64l0.544,0.051h20.858c3.632,0.064,6.465,2.896,6.465,6.397
						C46.241,71.029,43.409,73.865,39.915,73.865"/>
				</g>
			</g>
		</g>
		<g>
			<g>
				<g>
					<defs>
						<rect id="SVGID_3_" y="23.188" width="160" height="112.625"/>
					</defs>
					<clipPath id="SVGID_4_">
						<use xlink:href="#SVGID_3_"  overflow="visible"/>
					</clipPath>
					<path clip-path="url(#SVGID_4_)" fill="#ADADB8" d="M94.555,35.901v0.006h-0.072h-0.012h-0.012H61.412
						c-0.064,0-0.121,0.016-0.185,0.016c-3.493,0-6.327-2.823-6.327-6.326c0-3.469,2.803-6.291,6.275-6.319v-0.015h33.208
						c0.029,0,0.059-0.006,0.088-0.006c3.492,0,6.326,2.832,6.326,6.321C100.797,33.046,98.008,35.854,94.555,35.901"/>
				</g>
			</g>
		</g>
		<g>
			<g>
				<g>
					<defs>
						<rect id="SVGID_5_" y="23.188" width="160" height="112.625"/>
					</defs>
					<clipPath id="SVGID_6_">
						<use xlink:href="#SVGID_5_"  overflow="visible"/>
					</clipPath>
					<path clip-path="url(#SVGID_6_)" fill="#ADADB8" d="M100.799,67.52c0-3.49-2.834-6.326-6.328-6.326
						c-0.029,0-0.061,0.01-0.088,0.01H61.174v0.013c-3.472,0.033-6.276,2.848-6.276,6.329c0,3.487,2.833,6.321,6.327,6.321
						c0.064,0,0.122-0.013,0.186-0.02h33.047h0.015h0.01h0.072v-0.01C98.008,73.792,100.799,70.987,100.799,67.52"/>
				</g>
			</g>
		</g>
		<g>
			<g>
				<g>
					<defs>
						<rect id="SVGID_7_" y="23.188" width="160" height="112.625"/>
					</defs>
					<clipPath id="SVGID_8_">
						<use xlink:href="#SVGID_7_"  overflow="visible"/>
					</clipPath>
					<path clip-path="url(#SVGID_8_)" fill="#ADADB8" d="M109.328,38.223c0,29.271-0.031,29.271,0.006,29.415
						c0,3.492,2.834,6.323,6.33,6.323s6.326-2.831,6.385-6.467V42.176l0.061-0.533c0.271-3.014,2.617-5.389,5.634-5.75h0.418h0.437
						l12.987,0.089c3.045,0.26,5.451,2.646,5.795,5.712v0.632l-0.021,25.266c0,3.498,2.824,6.33,6.318,6.33
						c3.495,0,6.323-2.832,6.323-6.331l-0.033-30.172c-0.381-7.606-6.459-13.717-14.053-14.157l-21.953-0.005
						C115.85,23.432,109.328,30.062,109.328,38.223"/>
				</g>
			</g>
		</g>
		<g>
			<g>
				<g>
					<defs>
						<rect id="SVGID_9_" y="23.188" width="160" height="112.625"/>
					</defs>
					<clipPath id="SVGID_10_">
						<use xlink:href="#SVGID_9_"  overflow="visible"/>
					</clipPath>
					<path clip-path="url(#SVGID_10_)" fill="#ADADB8" d="M128.287,48.586c0-3.49,2.826-6.324,6.326-6.324
						c3.494,0,6.324,2.834,6.324,6.324c0,3.496-2.83,6.326-6.324,6.326C131.113,54.913,128.287,52.084,128.287,48.586"/>
				</g>
			</g>
		</g>
		<g>
			<g>
				<g>
					<defs>
						<rect id="SVGID_11_" y="23.188" width="160" height="112.625"/>
					</defs>
					<clipPath id="SVGID_12_">
						<use xlink:href="#SVGID_11_"  overflow="visible"/>
					</clipPath>
					<path clip-path="url(#SVGID_12_)" fill="#ADADB8" d="M77.767,54.913c3.495,0,6.321-2.828,6.321-6.326
						c0-3.49-2.826-6.324-6.321-6.324c-3.494,0-6.326,2.834-6.326,6.324C71.44,52.084,74.272,54.913,77.767,54.913"/>
				</g>
			</g>
		</g>
		<g>
			<g>
				<g>
					<defs>
						<rect id="SVGID_13_" y="23.188" width="160" height="112.625"/>
					</defs>
					<clipPath id="SVGID_14_">
						<use xlink:href="#SVGID_13_"  overflow="visible"/>
					</clipPath>
					<path clip-path="url(#SVGID_14_)" fill="#ADADB8" d="M19.051,48.586c0-3.49,2.828-6.324,6.329-6.324
						c3.492,0,6.323,2.834,6.323,6.324c0,3.496-2.832,6.326-6.323,6.326C21.878,54.913,19.051,52.084,19.051,48.586"/>
				</g>
			</g>
		</g>
		<g>
			<g>
				<g>
					<defs>
						<rect id="SVGID_15_" y="23.188" width="160" height="112.625"/>
					</defs>
					<clipPath id="SVGID_16_">
						<use xlink:href="#SVGID_15_"  overflow="visible"/>
					</clipPath>
					<path clip-path="url(#SVGID_16_)" fill="#ADADB8" d="M157.121,135.527c0.488-0.188,0.885-0.428,1.188-0.728
						c0.305-0.293,0.521-0.616,0.646-0.979c0.125-0.358,0.188-0.711,0.188-1.055c0-0.504-0.092-0.926-0.272-1.264
						c-0.185-0.34-0.427-0.627-0.731-0.861c-0.306-0.236-0.652-0.428-1.035-0.57c-0.39-0.146-0.783-0.276-1.187-0.396
						c-0.401-0.114-0.795-0.231-1.174-0.344c-0.384-0.11-0.728-0.246-1.031-0.396c-0.305-0.149-0.549-0.338-0.731-0.562
						c-0.185-0.228-0.273-0.513-0.273-0.854c0-0.291,0.064-0.559,0.195-0.799c0.127-0.24,0.305-0.447,0.529-0.625
						c0.225-0.18,0.489-0.313,0.795-0.412c0.307-0.098,0.637-0.146,0.989-0.146c0.609,0,1.181,0.108,1.705,0.321
						c0.527,0.216,0.979,0.56,1.369,1.029l0.61-0.678c-0.42-0.48-0.93-0.854-1.526-1.115c-0.604-0.264-1.306-0.395-2.108-0.395
						c-0.48,0-0.939,0.066-1.367,0.201c-0.43,0.135-0.81,0.324-1.131,0.57c-0.324,0.248-0.578,0.547-0.767,0.899
						c-0.187,0.354-0.274,0.752-0.274,1.19c0,0.623,0.153,1.113,0.473,1.474c0.316,0.358,0.715,0.646,1.191,0.86
						c0.476,0.215,0.996,0.39,1.553,0.521c0.561,0.135,1.076,0.293,1.555,0.477c0.479,0.183,0.875,0.418,1.189,0.705
						c0.317,0.293,0.477,0.701,0.477,1.226c0,0.227-0.043,0.463-0.129,0.717c-0.086,0.25-0.24,0.481-0.459,0.69
						c-0.221,0.211-0.514,0.386-0.877,0.521c-0.367,0.143-0.82,0.209-1.369,0.209c-0.387,0-0.744-0.043-1.068-0.127
						c-0.328-0.088-0.635-0.201-0.916-0.346c-0.287-0.146-0.539-0.312-0.768-0.498c-0.225-0.188-0.426-0.387-0.594-0.59
						l-0.598,0.693c0.405,0.504,0.938,0.916,1.602,1.229c0.66,0.318,1.434,0.477,2.326,0.477
						C156.029,135.811,156.633,135.715,157.121,135.527 M149.309,135.617v-10.734h-0.918v9.094l-6.729-9.094h-0.933v10.734h0.918
						v-9.223l6.761,9.223H149.309z M131.494,134.619c-0.52-0.234-0.965-0.564-1.334-0.988c-0.367-0.426-0.652-0.924-0.85-1.498
						c-0.199-0.572-0.299-1.197-0.299-1.875c0-0.686,0.1-1.316,0.299-1.891c0.196-0.574,0.479-1.07,0.85-1.49
						c0.371-0.416,0.816-0.744,1.334-0.98c0.518-0.233,1.105-0.354,1.758-0.354c0.645,0,1.225,0.117,1.744,0.354
						c0.52,0.237,0.963,0.564,1.332,0.98c0.369,0.42,0.656,0.916,0.859,1.49c0.203,0.572,0.305,1.205,0.305,1.891
						c0,0.678-0.102,1.303-0.305,1.875c-0.203,0.574-0.49,1.072-0.859,1.498c-0.369,0.424-0.812,0.754-1.332,0.988
						c-0.52,0.238-1.102,0.354-1.744,0.354C132.602,134.975,132.012,134.857,131.494,134.619 M135.396,135.385
						c0.645-0.283,1.194-0.678,1.649-1.176c0.459-0.5,0.81-1.086,1.06-1.762c0.246-0.678,0.369-1.408,0.369-2.189
						c0-0.779-0.123-1.514-0.369-2.189c-0.248-0.674-0.601-1.262-1.06-1.762c-0.455-0.496-1.006-0.891-1.649-1.174
						c-0.646-0.285-1.359-0.428-2.146-0.428c-0.795,0-1.513,0.143-2.151,0.428c-0.64,0.283-1.188,0.678-1.646,1.174
						c-0.457,0.5-0.81,1.088-1.056,1.762c-0.248,0.679-0.373,1.41-0.373,2.189c0,0.781,0.123,1.514,0.373,2.189
						c0.246,0.676,0.599,1.262,1.056,1.762c0.457,0.498,1.006,0.893,1.646,1.176c0.641,0.283,1.356,0.426,2.151,0.426
						C134.037,135.811,134.75,135.668,135.396,135.385 M125.762,124.883h-0.918v10.734h0.918V124.883z M119.418,135.617v-9.898h3.51
						v-0.836h-7.936v0.836h3.508v9.898H119.418z M112.025,134.652c0.701-0.773,1.053-1.824,1.053-3.156v-6.613h-0.918v6.602
						c0,1.095-0.275,1.949-0.824,2.564c-0.547,0.617-1.357,0.926-2.436,0.926c-1.064,0-1.875-0.307-2.428-0.926
						c-0.558-0.615-0.832-1.471-0.832-2.564v-6.602h-0.916v6.613c0,0.666,0.088,1.266,0.264,1.795
						c0.176,0.533,0.441,0.982,0.795,1.354c0.354,0.373,0.789,0.654,1.312,0.861c0.518,0.201,1.116,0.305,1.805,0.305
						C110.283,135.811,111.324,135.424,112.025,134.652 M103.195,135.617v-0.836h-5.199v-9.898h-0.918v10.734H103.195z
						 M87.844,134.619c-0.52-0.234-0.963-0.564-1.33-0.988c-0.371-0.426-0.656-0.924-0.854-1.498
						c-0.199-0.572-0.297-1.197-0.297-1.875c0-0.686,0.1-1.316,0.297-1.891c0.197-0.575,0.48-1.07,0.854-1.49
						c0.369-0.416,0.812-0.744,1.33-0.98c0.52-0.233,1.107-0.354,1.76-0.354c0.644,0,1.226,0.117,1.742,0.354
						c0.521,0.236,0.965,0.564,1.334,0.98c0.369,0.42,0.654,0.916,0.859,1.49c0.203,0.572,0.307,1.205,0.307,1.891
						c0,0.678-0.104,1.303-0.307,1.875c-0.203,0.574-0.49,1.072-0.859,1.498c-0.371,0.424-0.813,0.754-1.334,0.988
						c-0.52,0.238-1.102,0.354-1.742,0.354C88.951,134.975,88.365,134.857,87.844,134.619 M91.748,135.385
						c0.645-0.283,1.195-0.678,1.652-1.176c0.455-0.5,0.809-1.086,1.057-1.762c0.246-0.678,0.369-1.408,0.369-2.189
						c0-0.779-0.123-1.514-0.369-2.189c-0.248-0.674-0.602-1.262-1.057-1.762c-0.457-0.496-1.008-0.891-1.652-1.174
						c-0.645-0.285-1.359-0.428-2.145-0.428c-0.795,0-1.513,0.143-2.15,0.428c-0.641,0.283-1.188,0.678-1.646,1.174
						c-0.455,0.5-0.809,1.088-1.055,1.762c-0.248,0.679-0.373,1.41-0.373,2.189c0,0.781,0.125,1.514,0.373,2.189
						c0.246,0.676,0.6,1.262,1.055,1.762c0.459,0.498,1.006,0.893,1.646,1.176c0.639,0.283,1.355,0.426,2.15,0.426
						C90.389,135.811,91.104,135.668,91.748,135.385 M80.574,135.527c0.486-0.188,0.883-0.428,1.188-0.728
						c0.303-0.293,0.518-0.616,0.646-0.979c0.125-0.358,0.188-0.711,0.188-1.055c0-0.504-0.092-0.926-0.272-1.264
						c-0.185-0.34-0.427-0.627-0.732-0.861c-0.305-0.236-0.651-0.428-1.039-0.57c-0.385-0.146-0.779-0.276-1.182-0.396
						c-0.403-0.114-0.794-0.231-1.175-0.344c-0.382-0.11-0.725-0.246-1.03-0.396s-0.55-0.338-0.733-0.562
						c-0.182-0.228-0.273-0.513-0.273-0.854c0-0.291,0.063-0.559,0.192-0.799c0.13-0.24,0.307-0.447,0.532-0.625
						c0.224-0.18,0.491-0.313,0.796-0.412c0.306-0.098,0.635-0.146,0.99-0.146c0.612,0,1.181,0.108,1.705,0.321
						c0.524,0.216,0.981,0.56,1.368,1.029l0.611-0.678c-0.418-0.48-0.929-0.854-1.527-1.115c-0.602-0.264-1.305-0.395-2.11-0.395
						c-0.481,0-0.939,0.066-1.368,0.201c-0.429,0.135-0.805,0.324-1.13,0.57c-0.325,0.248-0.578,0.547-0.764,0.899
						c-0.186,0.354-0.278,0.752-0.278,1.19c0,0.623,0.158,1.113,0.475,1.474s0.714,0.646,1.192,0.86
						c0.476,0.215,0.994,0.39,1.554,0.521c0.558,0.135,1.074,0.293,1.553,0.477c0.477,0.183,0.873,0.418,1.19,0.705
						c0.315,0.293,0.477,0.701,0.477,1.226c0,0.227-0.045,0.463-0.131,0.717c-0.084,0.25-0.238,0.481-0.459,0.69
						c-0.219,0.211-0.512,0.386-0.877,0.521c-0.365,0.143-0.821,0.209-1.369,0.209c-0.385,0-0.743-0.043-1.07-0.127
						c-0.327-0.088-0.634-0.201-0.917-0.346c-0.286-0.146-0.54-0.312-0.765-0.498c-0.225-0.188-0.425-0.387-0.595-0.59l-0.596,0.693
						c0.407,0.504,0.941,0.916,1.602,1.229c0.66,0.318,1.434,0.477,2.325,0.477C79.481,135.811,80.084,135.715,80.574,135.527
						 M61.042,134.781v-9.061h2.511c0.707,0,1.34,0.116,1.898,0.354c0.559,0.234,1.024,0.561,1.4,0.973
						c0.376,0.414,0.663,0.895,0.861,1.449c0.2,0.551,0.298,1.139,0.298,1.762c0,0.635-0.1,1.225-0.298,1.771
						c-0.198,0.549-0.487,1.025-0.868,1.434c-0.382,0.406-0.848,0.73-1.4,0.965c-0.552,0.236-1.184,0.354-1.891,0.354
						L61.042,134.781L61.042,134.781z M63.561,135.617c0.837,0,1.591-0.141,2.257-0.42c0.666-0.277,1.237-0.656,1.709-1.143
						c0.474-0.482,0.836-1.054,1.088-1.703c0.252-0.656,0.379-1.355,0.379-2.097c0-0.737-0.125-1.435-0.379-2.084
						c-0.251-0.647-0.614-1.217-1.088-1.705c-0.473-0.487-1.043-0.877-1.709-1.159c-0.666-0.283-1.42-0.429-2.257-0.429h-3.435
						v10.733h3.435V135.617z M57.456,135.617v-10.734h-0.919v9.094l-6.727-9.094h-0.934v10.734h0.917v-9.223l6.76,9.223H57.456z
						 M46.606,135.617v-0.836h-5.891v-4.248h5.778v-0.838h-5.778v-3.975h5.891v-0.839h-6.809v10.732h6.809V135.617L46.606,135.617z
						 M37.659,130.121h-3.863v0.756h3.863V130.121z M25.362,134.781v-4.248h3.444c0.376,0,0.702,0.059,0.98,0.176
						c0.28,0.117,0.514,0.275,0.7,0.477c0.188,0.195,0.331,0.424,0.428,0.683c0.097,0.258,0.146,0.521,0.146,0.789
						c0,0.655-0.199,1.174-0.597,1.555c-0.396,0.381-0.948,0.57-1.656,0.57L25.362,134.781L25.362,134.781z M25.362,129.695v-3.975
						h3.378c0.698,0,1.224,0.194,1.578,0.586c0.353,0.393,0.53,0.86,0.53,1.407c0,0.562-0.177,1.027-0.53,1.408
						c-0.354,0.381-0.88,0.569-1.578,0.569h-3.378V129.695z M28.96,135.617c0.968,0,1.724-0.256,2.266-0.771
						c0.542-0.518,0.814-1.225,0.814-2.123c0-0.324-0.057-0.631-0.169-0.928c-0.112-0.293-0.263-0.564-0.451-0.803
						c-0.189-0.242-0.41-0.443-0.662-0.604c-0.251-0.162-0.523-0.265-0.814-0.308c0.237-0.043,0.471-0.136,0.701-0.272
						c0.233-0.142,0.434-0.314,0.606-0.521c0.172-0.209,0.311-0.455,0.419-0.734c0.109-0.277,0.161-0.59,0.161-0.932
						c0-0.848-0.267-1.516-0.798-2.006c-0.532-0.488-1.255-0.732-2.169-0.732h-4.42v10.734H28.96L28.96,135.617z M22.175,135.617
						v-0.836h-5.89v-4.248h5.777v-0.838h-5.777v-3.975h5.89v-0.839h-6.808v10.732h6.808V135.617z M10.667,135.617l3.058-10.734
						h-1.03l-2.591,9.447l-2.625-9.447H6.645l-2.64,9.447l-2.591-9.447H0.382l3.074,10.734h1.031l2.575-9.223l2.575,9.223H10.667z"
						/>
				</g>
			</g>
		</g>
		<g>
			<g>
				<g>
					<defs>
						<rect id="SVGID_17_" y="23.188" width="160" height="112.625"/>
					</defs>
					<clipPath id="SVGID_18_">
						<use xlink:href="#SVGID_17_"  overflow="visible"/>
					</clipPath>
					<path clip-path="url(#SVGID_18_)" fill="#ADADB8" d="M159.232,112.092v-2.922h-9.648v-5.252h9.449v-2.92h-9.449v-4.91h9.648
						v-2.922h-12.967v18.928h12.967V112.092z M142.236,112.092V93.166h-3.318v13.137l-9.678-13.137h-3.406v18.926h3.32V98.586
						l9.875,13.506H142.236L142.236,112.092z M121.807,93.166h-3.318v18.926h3.318V93.166z M115.48,112.092v-2.922h-8.342V93.166
						h-3.32v18.926H115.48z M99.789,112.092V93.166h-3.32v13.137l-9.678-13.137h-3.404v18.926h3.318V98.586l9.875,13.506H99.789
						L99.789,112.092z M67.909,108.957c-0.766-0.352-1.424-0.83-1.972-1.436c-0.55-0.604-0.969-1.328-1.263-2.17
						c-0.294-0.843-0.439-1.744-0.439-2.709c0-0.982,0.146-1.894,0.439-2.726c0.293-0.834,0.713-1.553,1.263-2.155
						c0.548-0.605,1.206-1.082,1.972-1.435c0.766-0.351,1.632-0.522,2.596-0.522c0.946,0,1.806,0.174,2.583,0.522
						c0.775,0.353,1.437,0.828,1.986,1.435c0.549,0.604,0.971,1.321,1.263,2.155c0.293,0.832,0.439,1.74,0.439,2.726
						c0,0.965-0.147,1.866-0.439,2.709c-0.292,0.842-0.714,1.563-1.263,2.17c-0.549,0.604-1.21,1.084-1.986,1.436
						c-0.777,0.35-1.637,0.521-2.583,0.521C69.541,109.48,68.674,109.307,67.909,108.957 M74.407,111.693
						c1.182-0.49,2.204-1.172,3.064-2.043c0.861-0.869,1.527-1.902,2-3.092c0.473-1.193,0.71-2.498,0.71-3.916
						c0-1.42-0.238-2.726-0.71-3.916c-0.473-1.193-1.14-2.224-2-3.095c-0.861-0.868-1.882-1.551-3.064-2.041
						c-1.183-0.491-2.482-0.737-3.902-0.737c-1.419,0-2.72,0.246-3.901,0.737c-1.183,0.49-2.205,1.173-3.066,2.041
						c-0.859,0.873-1.527,1.9-2,3.095c-0.475,1.19-0.71,2.496-0.71,3.916s0.237,2.723,0.71,3.916c0.472,1.188,1.14,2.223,2,3.092
						c0.861,0.871,1.883,1.553,3.066,2.043c1.181,0.49,2.482,0.738,3.901,0.738C71.924,112.434,73.224,112.188,74.407,111.693
						 M47.634,105.537h-6.81l3.407-9.023L47.634,105.537z M53.735,112.092l-7.434-18.926H42.16l-7.435,18.926h3.773l1.391-3.633
						h8.684l1.389,3.633H53.735z M34.583,112.092l-7.065-9.732l6.639-9.19H30.16l-4.853,6.951l-4.88-6.951h-3.973l6.669,9.224
						l-7.094,9.705h3.973l5.305-7.406l5.306,7.406h3.972L34.583,112.092L34.583,112.092z M14.549,112.092v-2.922H4.902v-5.252h9.45
						v-2.92h-9.45v-4.91h9.647v-2.922H1.583v18.928h12.966V112.092z"/>
				</g>
			</g>
		</g>
	</g>
</g>
</svg>
