<?xml version="1.0" encoding="utf-8"?>
<!-- Generator: Adobe Illustrator 15.0.0, SVG Export Plug-In . SVG Version: 6.00 Build 0)  -->
<!DOCTYPE svg PUBLIC "-//W3C//DTD SVG 1.1//EN" "http://www.w3.org/Graphics/SVG/1.1/DTD/svg11.dtd">
<svg version="1.1" id="Ebene_1" xmlns="http://www.w3.org/2000/svg" xmlns:xlink="http://www.w3.org/1999/xlink" x="0px" y="0px"
	 width="480px" height="62px" viewBox="0 -0.285 480 62" enable-background="new 0 -0.285 480 62" xml:space="preserve">
<g>
	<g>
		<defs>
			<rect id="SVGID_1_" y="-0.001" width="480" height="61.432"/>
		</defs>
		<clipPath id="SVGID_2_">
			<use xlink:href="#SVGID_1_"  overflow="visible"/>
		</clipPath>
		<path clip-path="url(#SVGID_2_)" fill="#003049" d="M480,56.066V24.263h-4.193v9.046c0,5.277,0.143,13.101,0.33,17.01
			c-1.178-2.262-2.498-4.712-3.911-6.974l-11.826-19.082h-5.7v31.804h4.24V45.842c0-5.041-0.143-12.674-0.33-16.067
			c1.035,2.121,2.167,4.288,3.628,6.599l12.108,19.693L480,56.066L480,56.066z M444.231,40.33c0,8.196-4.9,12.345-10.085,12.345
			c-6.735,0-9.939-5.183-9.939-12.769c0-8.012,4.711-12.299,9.988-12.299C440.556,27.608,444.231,32.178,444.231,40.33
			 M448.849,39.811c0-10.46-5.605-16.021-14.182-16.021c-8.293,0-15.078,6.127-15.078,16.728c0,9.659,4.618,16.021,14.183,16.021
			C442.062,56.538,448.849,50.413,448.849,39.811 M413.74,56.066V24.263h-4.336v13.475h-16.209V24.263h-4.336v31.804h4.336V41.413
			h16.209v14.652H413.74z M384.662,27.891v-3.628h-22.664v3.628h9.141v28.176h4.336V27.891H384.662z M355.781,45.183H344.52
			l4.241-11.78c0.519-1.507,0.942-2.921,1.319-4.285h0.094c0.377,1.364,0.801,2.778,1.367,4.335L355.781,45.183z M364.404,56.066
			l-11.687-31.804h-4.806L336.32,56.066h4.43l2.639-7.443h13.522l2.639,7.443H364.404z M328.543,32.932
			c0,3.395-2.639,5.701-7.209,5.701c-1.271,0-2.214-0.047-2.686-0.094V27.702c0.849-0.048,1.789-0.095,2.873-0.095
			C326.141,27.608,328.543,29.116,328.543,32.932 M335.141,56.066l-8.67-11.354c-0.802-1.084-1.838-2.262-2.734-3.395
			c5.043-0.377,9.33-3.532,9.33-8.95c0-6.079-4.522-8.294-10.789-8.294c-3.486,0-5.797,0.047-7.963,0.188v31.804h4.334V41.79h0.565
			l10.413,14.275H335.141z M301.396,45.183h-11.262l4.241-11.78c0.519-1.507,0.94-2.921,1.317-4.285h0.096
			c0.377,1.364,0.801,2.778,1.367,4.335L301.396,45.183z M310.02,56.066l-11.686-31.804h-4.807l-11.59,31.804h4.43l2.638-7.443
			h13.522l2.64,7.443H310.02z M279.581,56.066l-4.808-31.804h-5.369l-6.881,20.307c-0.707,2.073-1.179,3.817-1.742,6.031h-0.096
			c-0.518-2.308-1.225-4.617-1.791-6.312l-6.688-20.025h-5.325l-4.664,31.804h4.43l2.166-17.95c0.377-3.11,0.707-5.654,0.896-8.245
			h0.048c0.519,2.167,1.177,4.521,2.026,7.065l6.453,19.13h4.617l6.832-20.447c0.754-2.311,1.227-4.241,1.557-5.748h0.094
			c0.188,1.884,0.52,4.429,0.99,7.819l2.686,18.376L279.581,56.066L279.581,56.066z"/>
	</g>
	<g>
		<defs>
			<rect id="SVGID_3_" y="-0.001" width="480" height="61.432"/>
		</defs>
		<clipPath id="SVGID_4_">
			<use xlink:href="#SVGID_3_"  overflow="visible"/>
		</clipPath>
		<path clip-path="url(#SVGID_4_)" fill="#003049" d="M208.266,47.662c0,0,1.129-2.563,6.201-3.434
			c5.079-0.869,4.667,3.268,3.608,5.154c-2.145,3.828-2.764,5.261-7.73,5.004C205.379,54.134,208.266,47.662,208.266,47.662
			 M66.605,14.371c0,0,1.351-2.456,6.474-2.879c5.137-0.425,5.319,1.636,3.149,5.448s-3.215,4.999-8.137,4.312
			C63.164,20.563,66.605,14.371,66.605,14.371 M44.88,25.276c0,0,1.766-18.137-3.288-16.107
			C37.722,10.723,44.88,25.276,44.88,25.276 M10.531,50.982C0.147,50.045-0.413,21.69,0.147,14.04
			C0.573,8.218,12.392,3.859,12.089,9.158c-0.67,11.654-1.547,28.04,1.115,28.1c2.326,0.051,8.181-11.587,9.513-13.075
			c2.334-2.604,7.326-3.104,8.731,0.271c2.24,5.39-0.732,18.828,4.362,18.828c5.09,0,7.941-12.812,7.941-12.812
			S29.3,5.909,38.847,0.866c8.978-4.743,16.038,10.554,12.186,31.615c0.83,1.618,2.636,5.389,1.937,6.271
			c-0.535,0.671-1.769-0.993-2.687-2.46c-1.325,6.244-7.73,25.273-17.629,25.137c-11.291-0.158-4.971-25.253-8.174-24.396
			C21.982,37.702,16.535,51.522,10.531,50.982 M76.782,41.822c2.632-0.285-9.58,16.705-17.801,15.22
			c-6.852-1.236-4.802-17.082,0.619-26.805c3.102-5.565,10.912-6.728,10.711-2.566c-0.196,4.16-7.5,18.916-3.619,19.127
			C71.054,47.034,74.022,42.122,76.782,41.822 M226.493,4.26c3.572-2.357,4.507-3.511,9.827-2.81
			c5.319,0.702-7.111,20.864-11.462,30.731c-2.993,6.786-6.583,10.624-10.497,7.396C210.447,36.35,222.924,6.618,226.493,4.26
			 M87.657,53.686c0,0-6.699,6.805-10.388,0c-2.916-5.374,3.729-23.482,8.44-26.023c4.715-2.543,8.578-2.966,8.578-1.062
			c0,1.908-1.06,4.502,0.426,3.867c1.482-0.636,20.801-9.336,20.899-2.327c0.113,8.112-9.885,19.297-3.601,18.698
			c3.608-0.342,7.311-4.521,9.051-5.268c2.178-7.371,5.651-16.235,5.651-16.235s-7.009-3.218,0.015-6.344
			c2.377-1.058,3.302-5.604,6.615-8.988c1.526-1.56,7.49-4.149,9.274-1.39c1.369,2.116-6.321,11.104,1.361,9.804
			c3.139-0.532,6.099-2.774,6.481-0.338c0.382,2.435-6.685,6.296-11.068,7.194c-2.534,0.519-10.417,20.442-6.976,21.863
			c4.602,1.901,10.369-4.327,12.303-3.801c2.603-3.012,6.52-5.634,6.477-6.164c-0.102-1.28-5.866-1.771-3.485-6.969
			c2.833-6.175,17.703-6.212,17.823-2.887c0.116,3.162-8.626,1.779-7.031,5.609c0.849,2.032,5.105,0.354,6.248,1.18
			c1.14,0.826,0.153,3.833-3.809,5.834c-7.121,3.598-6.852,8.141-2.872,8.183c9.051,0.097,15.507-13.866,15.507-13.866
			c-2.95-0.219-6.248-3.299-4.391-6.487c2.439-4.185,6.36-2.297,8.457,1.2c0,0,10.73-6.455,15.908-2.73
			c8.873,6.384-6.827,16.176-2.676,19.269c4.15,3.092,10.562-3.744,11.33-2.688c2.352,3.248-13.155,17.195-22.479,13.921
			c-5.738-2.019-1.762-9.416,5.137-20.519c3.201-5.154-7.22-2.185-7.22-2.185s-7.656,23.363-27.245,22.612
			c-5.73-0.222-8.672-4.824-8.002-8.924c-3.842,4.213-11.36,9.86-18.405,9.407c-6.07-0.39-5.684-5.441-4.22-11.056
			c-3.692,4.637-11.178,11.172-16.96,10.961c-13.183-0.482,1.111-23.375-0.16-23.586C99.941,33.004,88.2,32.944,87.657,53.686"/>
	</g>
</g>
</svg>
